<svg width="520" height="364" viewBox="0 0 520 364" fill="none" xmlns="http://www.w3.org/2000/svg">
  <defs>
    <linearGradient id="logoGradient" x1="0%" y1="0%" x2="100%" y2="0%">
      <stop offset="0%" style="stop-color:#60a5fa;stop-opacity:1" />
      <stop offset="100%" style="stop-color:#2563eb;stop-opacity:1" />
    </linearGradient>
  </defs>
  <path d="M289.773 363.636V9.53674e-07H138.139C110.914 9.53674e-07 88.1274 3.84706 69.7798 11.5412C51.3139 19.2353 37.4645 30.0071 28.2315 43.8565C18.8802 57.706 14.2045 73.7453 14.2045 91.9744C14.2045 105.824 17.1046 118.194 22.9048 129.084C28.705 139.856 36.6951 148.793 46.875 155.895C57.0549 162.997 68.8329 167.969 82.2088 170.81V174.361C67.5308 175.071 53.9773 179.036 41.5483 186.257C29.0009 193.478 18.9394 203.539 11.3636 216.442C3.78789 229.226 1.3113e-05 244.377 1.3113e-05 261.896C1.3113e-05 281.428 4.9716 298.887 14.9148 314.276C24.858 329.545 39.2401 341.619 58.0611 350.497C76.8821 359.257 99.7278 363.636 126.598 363.636H289.773ZM201.882 292.791H147.55C128.492 292.791 114.465 289.181 105.469 281.96C96.3542 274.74 91.7969 264.678 91.7969 251.776C91.7969 242.424 93.9867 234.375 98.3665 227.628C102.746 220.762 108.961 215.495 117.01 211.825C125.059 208.037 134.706 206.143 145.952 206.143H201.882V292.791ZM201.882 149.503H153.232C143.643 149.503 135.121 147.905 127.663 144.709C120.206 141.513 114.406 136.896 110.263 130.859C106.001 124.822 103.871 117.543 103.871 109.02C103.871 96.8276 108.191 87.2396 116.832 80.2557C125.473 73.2718 137.133 69.7798 151.811 69.7798H201.882V149.503Z" fill="url(#logoGradient)"/>
  <path d="M200.815 363.636V9.53674e-07H288.706V145.952H431.994V9.53674e-07H519.707V363.636H431.994V217.507H288.706V363.636H200.815Z" fill="url(#logoGradient)"/>
</svg>

